<?xml version="1.0" encoding="utf-8" standalone="no"?>
<!DOCTYPE svg PUBLIC "-//W3C//DTD SVG 1.1//EN"
  "http://www.w3.org/Graphics/SVG/1.1/DTD/svg11.dtd">
<svg xmlns:xlink="http://www.w3.org/1999/xlink" width="460.8pt" height="345.6pt" viewBox="0 0 460.8 345.6" xmlns="http://www.w3.org/2000/svg" version="1.1">
 <metadata>
  <rdf:RDF xmlns:dc="http://purl.org/dc/elements/1.1/" xmlns:cc="http://creativecommons.org/ns#" xmlns:rdf="http://www.w3.org/1999/02/22-rdf-syntax-ns#">
   <cc:Work>
    <dc:type rdf:resource="http://purl.org/dc/dcmitype/StillImage"/>
    <dc:date>2022-12-22T18:18:06.273396</dc:date>
    <dc:format>image/svg+xml</dc:format>
    <dc:creator>
     <cc:Agent>
      <dc:title>Matplotlib v3.5.2, https://matplotlib.org/</dc:title>
     </cc:Agent>
    </dc:creator>
   </cc:Work>
  </rdf:RDF>
 </metadata>
 <defs>
  <style type="text/css">*{stroke-linejoin: round; stroke-linecap: butt}</style>
 </defs>
 <g id="figure_1">
  <g id="patch_1">
   <path d="M 0 345.6 
L 460.8 345.6 
L 460.8 0 
L 0 0 
z
" style="fill: #ffffff"/>
  </g>
  <g id="axes_1">
   <g id="patch_2">
    <path d="M 55.255 303.64 
L 450 303.64 
L 450 21.72 
L 55.255 21.72 
z
" style="fill: #ffffff"/>
   </g>
   <g id="matplotlib.axis_1">
    <g id="xtick_1">
     <g id="line2d_1">
      <path d="M 72.477354 303.64 
L 72.477354 21.72 
" clip-path="url(#p0bab6f8d7d)" style="fill: none; stroke: #b0b0b0; stroke-width: 0.8; stroke-linecap: square"/>
     </g>
     <g id="line2d_2">
      <defs>
       <path id="m0949ce3db9" d="M 0 0 
L 0 3.5 
" style="stroke: #000000; stroke-width: 0.8"/>
      </defs>
      <g>
       <use xlink:href="#m0949ce3db9" x="72.477354" y="303.64" style="stroke: #000000; stroke-width: 0.8"/>
      </g>
     </g>
     <g id="text_1">
      <!-- 0 -->
      <g transform="translate(69.296104 318.238437)scale(0.1 -0.1)">
       <defs>
        <path id="DejaVuSans-30" d="M 2034 4250 
Q 1547 4250 1301 3770 
Q 1056 3291 1056 2328 
Q 1056 1369 1301 889 
Q 1547 409 2034 409 
Q 2525 409 2770 889 
Q 3016 1369 3016 2328 
Q 3016 3291 2770 3770 
Q 2525 4250 2034 4250 
z
M 2034 4750 
Q 2819 4750 3233 4129 
Q 3647 3509 3647 2328 
Q 3647 1150 3233 529 
Q 2819 -91 2034 -91 
Q 1250 -91 836 529 
Q 422 1150 422 2328 
Q 422 3509 836 4129 
Q 1250 4750 2034 4750 
z
" transform="scale(0.015625)"/>
       </defs>
       <use xlink:href="#DejaVuSans-30"/>
      </g>
     </g>
    </g>
    <g id="xtick_2">
     <g id="line2d_3">
      <path d="M 129.735267 303.64 
L 129.735267 21.72 
" clip-path="url(#p0bab6f8d7d)" style="fill: none; stroke: #b0b0b0; stroke-width: 0.8; stroke-linecap: square"/>
     </g>
     <g id="line2d_4">
      <g>
       <use xlink:href="#m0949ce3db9" x="129.735267" y="303.64" style="stroke: #000000; stroke-width: 0.8"/>
      </g>
     </g>
     <g id="text_2">
      <!-- 1 -->
      <g transform="translate(126.554017 318.238437)scale(0.1 -0.1)">
       <defs>
        <path id="DejaVuSans-31" d="M 794 531 
L 1825 531 
L 1825 4091 
L 703 3866 
L 703 4441 
L 1819 4666 
L 2450 4666 
L 2450 531 
L 3481 531 
L 3481 0 
L 794 0 
L 794 531 
z
" transform="scale(0.015625)"/>
       </defs>
       <use xlink:href="#DejaVuSans-31"/>
      </g>
     </g>
    </g>
    <g id="xtick_3">
     <g id="line2d_5">
      <path d="M 186.993179 303.64 
L 186.993179 21.72 
" clip-path="url(#p0bab6f8d7d)" style="fill: none; stroke: #b0b0b0; stroke-width: 0.8; stroke-linecap: square"/>
     </g>
     <g id="line2d_6">
      <g>
       <use xlink:href="#m0949ce3db9" x="186.993179" y="303.64" style="stroke: #000000; stroke-width: 0.8"/>
      </g>
     </g>
     <g id="text_3">
      <!-- 2 -->
      <g transform="translate(183.811929 318.238437)scale(0.1 -0.1)">
       <defs>
        <path id="DejaVuSans-32" d="M 1228 531 
L 3431 531 
L 3431 0 
L 469 0 
L 469 531 
Q 828 903 1448 1529 
Q 2069 2156 2228 2338 
Q 2531 2678 2651 2914 
Q 2772 3150 2772 3378 
Q 2772 3750 2511 3984 
Q 2250 4219 1831 4219 
Q 1534 4219 1204 4116 
Q 875 4013 500 3803 
L 500 4441 
Q 881 4594 1212 4672 
Q 1544 4750 1819 4750 
Q 2544 4750 2975 4387 
Q 3406 4025 3406 3419 
Q 3406 3131 3298 2873 
Q 3191 2616 2906 2266 
Q 2828 2175 2409 1742 
Q 1991 1309 1228 531 
z
" transform="scale(0.015625)"/>
       </defs>
       <use xlink:href="#DejaVuSans-32"/>
      </g>
     </g>
    </g>
    <g id="xtick_4">
     <g id="line2d_7">
      <path d="M 244.251092 303.64 
L 244.251092 21.72 
" clip-path="url(#p0bab6f8d7d)" style="fill: none; stroke: #b0b0b0; stroke-width: 0.8; stroke-linecap: square"/>
     </g>
     <g id="line2d_8">
      <g>
       <use xlink:href="#m0949ce3db9" x="244.251092" y="303.64" style="stroke: #000000; stroke-width: 0.8"/>
      </g>
     </g>
     <g id="text_4">
      <!-- 3 -->
      <g transform="translate(241.069842 318.238437)scale(0.1 -0.1)">
       <defs>
        <path id="DejaVuSans-33" d="M 2597 2516 
Q 3050 2419 3304 2112 
Q 3559 1806 3559 1356 
Q 3559 666 3084 287 
Q 2609 -91 1734 -91 
Q 1441 -91 1130 -33 
Q 819 25 488 141 
L 488 750 
Q 750 597 1062 519 
Q 1375 441 1716 441 
Q 2309 441 2620 675 
Q 2931 909 2931 1356 
Q 2931 1769 2642 2001 
Q 2353 2234 1838 2234 
L 1294 2234 
L 1294 2753 
L 1863 2753 
Q 2328 2753 2575 2939 
Q 2822 3125 2822 3475 
Q 2822 3834 2567 4026 
Q 2313 4219 1838 4219 
Q 1578 4219 1281 4162 
Q 984 4106 628 3988 
L 628 4550 
Q 988 4650 1302 4700 
Q 1616 4750 1894 4750 
Q 2613 4750 3031 4423 
Q 3450 4097 3450 3541 
Q 3450 3153 3228 2886 
Q 3006 2619 2597 2516 
z
" transform="scale(0.015625)"/>
       </defs>
       <use xlink:href="#DejaVuSans-33"/>
      </g>
     </g>
    </g>
    <g id="xtick_5">
     <g id="line2d_9">
      <path d="M 301.509005 303.64 
L 301.509005 21.72 
" clip-path="url(#p0bab6f8d7d)" style="fill: none; stroke: #b0b0b0; stroke-width: 0.8; stroke-linecap: square"/>
     </g>
     <g id="line2d_10">
      <g>
       <use xlink:href="#m0949ce3db9" x="301.509005" y="303.64" style="stroke: #000000; stroke-width: 0.8"/>
      </g>
     </g>
     <g id="text_5">
      <!-- 4 -->
      <g transform="translate(298.327755 318.238437)scale(0.1 -0.1)">
       <defs>
        <path id="DejaVuSans-34" d="M 2419 4116 
L 825 1625 
L 2419 1625 
L 2419 4116 
z
M 2253 4666 
L 3047 4666 
L 3047 1625 
L 3713 1625 
L 3713 1100 
L 3047 1100 
L 3047 0 
L 2419 0 
L 2419 1100 
L 313 1100 
L 313 1709 
L 2253 4666 
z
" transform="scale(0.015625)"/>
       </defs>
       <use xlink:href="#DejaVuSans-34"/>
      </g>
     </g>
    </g>
    <g id="xtick_6">
     <g id="line2d_11">
      <path d="M 358.766917 303.64 
L 358.766917 21.72 
" clip-path="url(#p0bab6f8d7d)" style="fill: none; stroke: #b0b0b0; stroke-width: 0.8; stroke-linecap: square"/>
     </g>
     <g id="line2d_12">
      <g>
       <use xlink:href="#m0949ce3db9" x="358.766917" y="303.64" style="stroke: #000000; stroke-width: 0.8"/>
      </g>
     </g>
     <g id="text_6">
      <!-- 5 -->
      <g transform="translate(355.585667 318.238437)scale(0.1 -0.1)">
       <defs>
        <path id="DejaVuSans-35" d="M 691 4666 
L 3169 4666 
L 3169 4134 
L 1269 4134 
L 1269 2991 
Q 1406 3038 1543 3061 
Q 1681 3084 1819 3084 
Q 2600 3084 3056 2656 
Q 3513 2228 3513 1497 
Q 3513 744 3044 326 
Q 2575 -91 1722 -91 
Q 1428 -91 1123 -41 
Q 819 9 494 109 
L 494 744 
Q 775 591 1075 516 
Q 1375 441 1709 441 
Q 2250 441 2565 725 
Q 2881 1009 2881 1497 
Q 2881 1984 2565 2268 
Q 2250 2553 1709 2553 
Q 1456 2553 1204 2497 
Q 953 2441 691 2322 
L 691 4666 
z
" transform="scale(0.015625)"/>
       </defs>
       <use xlink:href="#DejaVuSans-35"/>
      </g>
     </g>
    </g>
    <g id="xtick_7">
     <g id="line2d_13">
      <path d="M 416.02483 303.64 
L 416.02483 21.72 
" clip-path="url(#p0bab6f8d7d)" style="fill: none; stroke: #b0b0b0; stroke-width: 0.8; stroke-linecap: square"/>
     </g>
     <g id="line2d_14">
      <g>
       <use xlink:href="#m0949ce3db9" x="416.02483" y="303.64" style="stroke: #000000; stroke-width: 0.8"/>
      </g>
     </g>
     <g id="text_7">
      <!-- 6 -->
      <g transform="translate(412.84358 318.238437)scale(0.1 -0.1)">
       <defs>
        <path id="DejaVuSans-36" d="M 2113 2584 
Q 1688 2584 1439 2293 
Q 1191 2003 1191 1497 
Q 1191 994 1439 701 
Q 1688 409 2113 409 
Q 2538 409 2786 701 
Q 3034 994 3034 1497 
Q 3034 2003 2786 2293 
Q 2538 2584 2113 2584 
z
M 3366 4563 
L 3366 3988 
Q 3128 4100 2886 4159 
Q 2644 4219 2406 4219 
Q 1781 4219 1451 3797 
Q 1122 3375 1075 2522 
Q 1259 2794 1537 2939 
Q 1816 3084 2150 3084 
Q 2853 3084 3261 2657 
Q 3669 2231 3669 1497 
Q 3669 778 3244 343 
Q 2819 -91 2113 -91 
Q 1303 -91 875 529 
Q 447 1150 447 2328 
Q 447 3434 972 4092 
Q 1497 4750 2381 4750 
Q 2619 4750 2861 4703 
Q 3103 4656 3366 4563 
z
" transform="scale(0.015625)"/>
       </defs>
       <use xlink:href="#DejaVuSans-36"/>
      </g>
     </g>
    </g>
    <g id="text_8">
     <!-- $\omega$ -->
     <g transform="translate(248.4275 331.916562)scale(0.1 -0.1)">
      <defs>
       <path id="DejaVuSans-Oblique-3c9" d="M 1369 -91 
Q 72 -91 434 1766 
Q 575 2500 1256 3500 
L 1875 3500 
Q 1231 2500 1088 1750 
Q 819 397 1519 397 
Q 2166 397 2478 2078 
L 3009 2078 
Q 2669 388 3316 397 
Q 4013 403 4275 1750 
Q 4419 2500 4169 3500 
L 4788 3500 
Q 5075 2500 4934 1766 
Q 4578 -94 3278 -91 
Q 2428 -88 2503 844 
Q 2194 -91 1369 -91 
z
" transform="scale(0.015625)"/>
      </defs>
      <use xlink:href="#DejaVuSans-Oblique-3c9" transform="translate(0 0.3125)"/>
     </g>
    </g>
   </g>
   <g id="matplotlib.axis_2">
    <g id="ytick_1">
     <g id="line2d_15">
      <path d="M 55.255 290.825455 
L 450 290.825455 
" clip-path="url(#p0bab6f8d7d)" style="fill: none; stroke: #b0b0b0; stroke-width: 0.8; stroke-linecap: square"/>
     </g>
     <g id="line2d_16">
      <defs>
       <path id="m45d40ad935" d="M 0 0 
L -3.5 0 
" style="stroke: #000000; stroke-width: 0.8"/>
      </defs>
      <g>
       <use xlink:href="#m45d40ad935" x="55.255" y="290.825455" style="stroke: #000000; stroke-width: 0.8"/>
      </g>
     </g>
     <g id="text_9">
      <!-- 0.0 -->
      <g transform="translate(32.351875 294.624673)scale(0.1 -0.1)">
       <defs>
        <path id="DejaVuSans-2e" d="M 684 794 
L 1344 794 
L 1344 0 
L 684 0 
L 684 794 
z
" transform="scale(0.015625)"/>
       </defs>
       <use xlink:href="#DejaVuSans-30"/>
       <use xlink:href="#DejaVuSans-2e" x="63.623047"/>
       <use xlink:href="#DejaVuSans-30" x="95.410156"/>
      </g>
     </g>
    </g>
    <g id="ytick_2">
     <g id="line2d_17">
      <path d="M 55.255 244.736509 
L 450 244.736509 
" clip-path="url(#p0bab6f8d7d)" style="fill: none; stroke: #b0b0b0; stroke-width: 0.8; stroke-linecap: square"/>
     </g>
     <g id="line2d_18">
      <g>
       <use xlink:href="#m45d40ad935" x="55.255" y="244.736509" style="stroke: #000000; stroke-width: 0.8"/>
      </g>
     </g>
     <g id="text_10">
      <!-- 0.5 -->
      <g transform="translate(32.351875 248.535728)scale(0.1 -0.1)">
       <use xlink:href="#DejaVuSans-30"/>
       <use xlink:href="#DejaVuSans-2e" x="63.623047"/>
       <use xlink:href="#DejaVuSans-35" x="95.410156"/>
      </g>
     </g>
    </g>
    <g id="ytick_3">
     <g id="line2d_19">
      <path d="M 55.255 198.647564 
L 450 198.647564 
" clip-path="url(#p0bab6f8d7d)" style="fill: none; stroke: #b0b0b0; stroke-width: 0.8; stroke-linecap: square"/>
     </g>
     <g id="line2d_20">
      <g>
       <use xlink:href="#m45d40ad935" x="55.255" y="198.647564" style="stroke: #000000; stroke-width: 0.8"/>
      </g>
     </g>
     <g id="text_11">
      <!-- 1.0 -->
      <g transform="translate(32.351875 202.446783)scale(0.1 -0.1)">
       <use xlink:href="#DejaVuSans-31"/>
       <use xlink:href="#DejaVuSans-2e" x="63.623047"/>
       <use xlink:href="#DejaVuSans-30" x="95.410156"/>
      </g>
     </g>
    </g>
    <g id="ytick_4">
     <g id="line2d_21">
      <path d="M 55.255 152.558619 
L 450 152.558619 
" clip-path="url(#p0bab6f8d7d)" style="fill: none; stroke: #b0b0b0; stroke-width: 0.8; stroke-linecap: square"/>
     </g>
     <g id="line2d_22">
      <g>
       <use xlink:href="#m45d40ad935" x="55.255" y="152.558619" style="stroke: #000000; stroke-width: 0.8"/>
      </g>
     </g>
     <g id="text_12">
      <!-- 1.5 -->
      <g transform="translate(32.351875 156.357838)scale(0.1 -0.1)">
       <use xlink:href="#DejaVuSans-31"/>
       <use xlink:href="#DejaVuSans-2e" x="63.623047"/>
       <use xlink:href="#DejaVuSans-35" x="95.410156"/>
      </g>
     </g>
    </g>
    <g id="ytick_5">
     <g id="line2d_23">
      <path d="M 55.255 106.469674 
L 450 106.469674 
" clip-path="url(#p0bab6f8d7d)" style="fill: none; stroke: #b0b0b0; stroke-width: 0.8; stroke-linecap: square"/>
     </g>
     <g id="line2d_24">
      <g>
       <use xlink:href="#m45d40ad935" x="55.255" y="106.469674" style="stroke: #000000; stroke-width: 0.8"/>
      </g>
     </g>
     <g id="text_13">
      <!-- 2.0 -->
      <g transform="translate(32.351875 110.268892)scale(0.1 -0.1)">
       <use xlink:href="#DejaVuSans-32"/>
       <use xlink:href="#DejaVuSans-2e" x="63.623047"/>
       <use xlink:href="#DejaVuSans-30" x="95.410156"/>
      </g>
     </g>
    </g>
    <g id="ytick_6">
     <g id="line2d_25">
      <path d="M 55.255 60.380728 
L 450 60.380728 
" clip-path="url(#p0bab6f8d7d)" style="fill: none; stroke: #b0b0b0; stroke-width: 0.8; stroke-linecap: square"/>
     </g>
     <g id="line2d_26">
      <g>
       <use xlink:href="#m45d40ad935" x="55.255" y="60.380728" style="stroke: #000000; stroke-width: 0.8"/>
      </g>
     </g>
     <g id="text_14">
      <!-- 2.5 -->
      <g transform="translate(32.351875 64.179947)scale(0.1 -0.1)">
       <use xlink:href="#DejaVuSans-32"/>
       <use xlink:href="#DejaVuSans-2e" x="63.623047"/>
       <use xlink:href="#DejaVuSans-35" x="95.410156"/>
      </g>
     </g>
    </g>
    <g id="text_15">
     <!-- $\frac{dE}{d\Omega d\omega}$ -->
     <g transform="translate(24.151875 173.38)rotate(-90)scale(0.1 -0.1)">
      <defs>
       <path id="DejaVuSans-Oblique-64" d="M 2675 525 
Q 2444 222 2128 65 
Q 1813 -91 1428 -91 
Q 903 -91 598 267 
Q 294 625 294 1247 
Q 294 1766 478 2236 
Q 663 2706 1013 3078 
Q 1244 3325 1534 3454 
Q 1825 3584 2144 3584 
Q 2481 3584 2739 3421 
Q 2997 3259 3138 2956 
L 3513 4863 
L 4091 4863 
L 3144 0 
L 2566 0 
L 2675 525 
z
M 891 1350 
Q 891 897 1095 644 
Q 1300 391 1663 391 
Q 1931 391 2161 520 
Q 2391 650 2566 903 
Q 2750 1166 2856 1509 
Q 2963 1853 2963 2188 
Q 2963 2622 2758 2865 
Q 2553 3109 2194 3109 
Q 1922 3109 1687 2981 
Q 1453 2853 1288 2613 
Q 1106 2353 998 2009 
Q 891 1666 891 1350 
z
" transform="scale(0.015625)"/>
       <path id="DejaVuSans-Oblique-45" d="M 1081 4666 
L 4031 4666 
L 3928 4134 
L 1606 4134 
L 1338 2753 
L 3566 2753 
L 3463 2222 
L 1234 2222 
L 909 531 
L 3284 531 
L 3181 0 
L 172 0 
L 1081 4666 
z
" transform="scale(0.015625)"/>
       <path id="DejaVuSans-3a9" d="M 4647 556 
L 4647 0 
L 2772 0 
L 2772 556 
Q 3325 859 3634 1378 
Q 3944 1897 3944 2528 
Q 3944 3278 3531 3731 
Q 3119 4184 2444 4184 
Q 1769 4184 1355 3729 
Q 941 3275 941 2528 
Q 941 1897 1250 1378 
Q 1563 859 2119 556 
L 2119 0 
L 244 0 
L 244 556 
L 1241 556 
Q 747 991 519 1456 
Q 294 1922 294 2497 
Q 294 3491 894 4106 
Q 1491 4722 2444 4722 
Q 3391 4722 3994 4106 
Q 4594 3494 4594 2528 
Q 4594 1922 4372 1459 
Q 4150 997 3647 556 
L 4647 556 
z
" transform="scale(0.015625)"/>
      </defs>
      <use xlink:href="#DejaVuSans-Oblique-64" transform="translate(56 44.810938)scale(0.7)"/>
      <use xlink:href="#DejaVuSans-Oblique-45" transform="translate(100.433594 44.810938)scale(0.7)"/>
      <use xlink:href="#DejaVuSans-Oblique-64" transform="translate(0 -40.623437)scale(0.7)"/>
      <use xlink:href="#DejaVuSans-3a9" transform="translate(44.433594 -40.623437)scale(0.7)"/>
      <use xlink:href="#DejaVuSans-Oblique-64" transform="translate(97.924805 -40.623437)scale(0.7)"/>
      <use xlink:href="#DejaVuSans-Oblique-3c9" transform="translate(142.358398 -40.623437)scale(0.7)"/>
      <path d="M 0 18.815625 
L 0 25.065625 
L 200.976562 25.065625 
L 200.976562 18.815625 
L 0 18.815625 
z
"/>
     </g>
    </g>
    <g id="text_16">
     <!-- 1e6 -->
     <g transform="translate(55.255 18.72)scale(0.1 -0.1)">
      <defs>
       <path id="DejaVuSans-65" d="M 3597 1894 
L 3597 1613 
L 953 1613 
Q 991 1019 1311 708 
Q 1631 397 2203 397 
Q 2534 397 2845 478 
Q 3156 559 3463 722 
L 3463 178 
Q 3153 47 2828 -22 
Q 2503 -91 2169 -91 
Q 1331 -91 842 396 
Q 353 884 353 1716 
Q 353 2575 817 3079 
Q 1281 3584 2069 3584 
Q 2775 3584 3186 3129 
Q 3597 2675 3597 1894 
z
M 3022 2063 
Q 3016 2534 2758 2815 
Q 2500 3097 2075 3097 
Q 1594 3097 1305 2825 
Q 1016 2553 972 2059 
L 3022 2063 
z
" transform="scale(0.015625)"/>
      </defs>
      <use xlink:href="#DejaVuSans-31"/>
      <use xlink:href="#DejaVuSans-65" x="63.623047"/>
      <use xlink:href="#DejaVuSans-36" x="125.146484"/>
     </g>
    </g>
   </g>
   <g id="line2d_27">
    <path d="M 73.197955 290.824389 
L 121.478194 290.770562 
L 122.919395 290.767884 
L 124.360596 290.507624 
L 125.801797 290.82437 
L 126.522398 290.459156 
L 127.242998 288.95069 
L 128.6842 284.231886 
L 129.4048 282.926912 
L 130.125401 283.479352 
L 132.287202 290.40916 
L 133.007803 290.823943 
L 134.449004 290.350725 
L 136.610806 290.823577 
L 138.052007 290.629778 
L 140.934409 290.764839 
L 142.375611 290.735917 
L 143.816812 290.822943 
L 145.978614 290.759996 
L 147.419815 290.822312 
L 149.581616 290.771544 
L 151.022818 290.821422 
L 153.184619 290.776893 
L 154.625821 290.820122 
L 156.787622 290.778291 
L 158.228823 290.81815 
L 160.390625 290.776349 
L 161.831826 290.81501 
L 163.993628 290.770586 
L 165.434829 290.809692 
L 166.87603 290.717325 
L 169.037832 290.799912 
L 170.479033 290.67553 
L 172.640835 290.779682 
L 174.082036 290.588052 
L 175.523237 290.821081 
L 176.243838 290.72945 
L 176.964439 290.471027 
L 177.685039 290.361672 
L 179.12624 290.820542 
L 179.846841 290.562586 
L 180.567442 289.849526 
L 181.288042 289.483483 
L 182.008643 290.031405 
L 182.729243 290.820965 
L 183.449844 289.262761 
L 184.170445 283.326469 
L 185.611646 264.104877 
L 186.332246 258.107381 
L 187.052847 261.42462 
L 188.494048 283.098737 
L 189.214649 289.255074 
L 189.935249 290.819615 
L 190.65585 289.843625 
L 191.37645 289.127436 
L 192.097051 289.668579 
L 192.817652 290.529755 
L 193.538252 290.818697 
L 194.979453 290.157025 
L 195.700054 290.342494 
L 196.420654 290.704159 
L 197.141255 290.818573 
L 198.582456 290.436402 
L 200.744258 290.817497 
L 202.185459 290.546852 
L 204.347261 290.816011 
L 205.788462 290.598047 
L 207.950264 290.813923 
L 209.391465 290.620973 
L 211.553267 290.810893 
L 212.994468 290.626227 
L 215.15627 290.806337 
L 216.597471 290.616594 
L 218.759273 290.799153 
L 220.200474 290.589845 
L 222.362275 290.787107 
L 223.803477 290.537438 
L 225.244678 290.81359 
L 225.965278 290.765166 
L 227.40648 290.437512 
L 228.847681 290.814341 
L 229.568281 290.720173 
L 230.288882 290.397748 
L 231.009482 290.229592 
L 232.450684 290.814818 
L 233.171284 290.609308 
L 233.891885 290.009654 
L 234.612485 289.698571 
L 235.333086 290.186337 
L 236.053687 290.813757 
L 236.774287 290.244594 
L 237.494888 288.654067 
L 238.215488 287.670252 
L 238.936089 288.912552 
L 239.656689 290.815132 
L 240.37729 287.417232 
L 241.097891 274.652437 
L 242.539092 227.68771 
L 243.259692 215.739707 
L 243.980293 227.545308 
L 245.421494 273.915508 
L 246.142095 287.20849 
L 246.862695 290.811651 
L 247.583296 288.726066 
L 248.303896 287.350513 
L 249.024497 288.381496 
L 249.745098 290.161567 
L 250.465698 290.810015 
L 251.186299 290.061935 
L 251.906899 289.483355 
L 252.6275 289.838164 
L 253.348101 290.560297 
L 254.068701 290.810091 
L 255.509902 290.055967 
L 256.230503 290.268665 
L 256.951104 290.687422 
L 257.671704 290.808087 
L 259.112905 290.280398 
L 259.833506 290.444966 
L 260.554106 290.74114 
L 261.274707 290.805312 
L 262.715908 290.383774 
L 264.87771 290.801433 
L 266.318911 290.429981 
L 268.480713 290.795859 
L 269.921914 290.440887 
L 272.083716 290.787574 
L 273.524917 290.422459 
L 274.966118 290.798878 
L 275.686719 290.774682 
L 277.12792 290.370726 
L 278.569121 290.802764 
L 279.289722 290.75335 
L 280.010322 290.438774 
L 280.730923 290.269503 
L 282.172124 290.805328 
L 282.892725 290.715001 
L 283.613325 290.296271 
L 284.333926 290.07721 
L 285.775127 290.807018 
L 286.495727 290.637331 
L 287.216328 290.007016 
L 287.936929 289.67901 
L 289.37813 290.808139 
L 290.09873 290.448151 
L 290.819331 289.299504 
L 291.539932 288.66771 
L 292.981133 290.806527 
L 293.701733 289.831608 
L 294.422334 286.856409 
L 295.142934 284.829593 
L 295.863535 287.346483 
L 296.584136 290.809295 
L 297.304736 285.097729 
L 298.025337 262.000719 
L 299.466538 175.110742 
L 300.187139 162.529418 
L 300.907739 186.262084 
L 302.34894 259.539126 
L 303.069541 284.183429 
L 303.790141 290.802255 
L 304.510742 287.387431 
L 305.231343 284.943299 
L 305.951943 286.384454 
L 306.672544 289.603032 
L 307.393144 290.799933 
L 308.113745 289.583511 
L 308.834346 288.602556 
L 309.554946 289.067941 
L 310.275547 290.338303 
L 310.996147 290.799809 
L 311.716748 290.110619 
L 312.437348 289.57711 
L 313.157949 289.858089 
L 313.87855 290.573207 
L 314.59915 290.796321 
L 315.319751 290.30444 
L 316.040351 289.955895 
L 316.760952 290.181242 
L 317.481553 290.672946 
L 318.202153 290.791447 
L 318.922754 290.38823 
L 319.643354 290.129742 
L 320.363955 290.337942 
L 321.084555 290.72364 
L 321.805156 290.784645 
L 322.525757 290.4195 
L 323.246357 290.207852 
L 323.966958 290.417964 
L 324.687558 290.752488 
L 325.408159 290.774939 
L 326.12876 290.41645 
L 326.84936 290.22759 
L 328.290561 290.770186 
L 329.011162 290.760658 
L 329.731763 290.382296 
L 330.452363 290.199424 
L 331.893564 290.781614 
L 332.614165 290.738706 
L 333.334765 290.309933 
L 334.055366 290.117305 
L 335.496567 290.789243 
L 336.217168 290.702895 
L 336.937768 290.178216 
L 337.658369 289.955232 
L 339.09957 290.794426 
L 339.820171 290.639506 
L 340.540771 289.93597 
L 341.261372 289.645936 
L 342.702573 290.797992 
L 343.423174 290.513211 
L 344.143774 289.447204 
L 344.864375 289.003137 
L 346.305576 290.800481 
L 347.026177 290.210815 
L 347.746777 288.258847 
L 348.467378 287.363894 
L 349.908579 290.799156 
L 350.629179 289.238618 
L 351.34978 284.179318 
L 352.070381 281.132764 
L 353.511582 290.803803 
L 354.232182 281.9079 
L 354.952783 242.96837 
L 356.393984 115.880176 
L 357.114585 105.406566 
L 357.835185 132.576532 
L 358.555786 180.907117 
L 359.276386 239.638603 
L 359.996987 280.704759 
L 360.717588 290.79259 
L 362.158789 281.363305 
L 362.879389 283.534633 
L 363.59999 288.939072 
L 364.320591 290.789783 
L 365.761792 287.320113 
L 366.482392 287.942908 
L 367.202993 290.066423 
L 367.923593 290.789688 
L 369.364795 288.904033 
L 370.085395 289.2455 
L 370.805996 290.427833 
L 371.526596 290.784521 
L 372.967798 289.520516 
L 373.688398 289.782473 
L 374.408999 290.582615 
L 375.129599 290.777104 
L 375.8502 290.221324 
L 376.5708 289.80753 
L 377.291401 290.046643 
L 378.012002 290.662031 
L 378.732602 290.766595 
L 379.453203 290.266964 
L 380.173803 289.943072 
L 380.894404 290.185919 
L 381.615005 290.707728 
L 382.335605 290.751456 
L 383.056206 290.262251 
L 383.776806 289.988861 
L 384.497407 290.255292 
L 385.218007 290.736142 
L 385.938608 290.729058 
L 386.659209 290.21178 
L 387.379809 289.963888 
L 388.10041 290.275903 
L 388.82101 290.754807 
L 389.541611 290.694539 
L 390.262212 290.10474 
L 390.982812 289.86214 
L 391.703413 290.251473 
L 392.424013 290.767551 
L 393.144614 290.63822 
L 393.865214 289.909245 
L 394.585815 289.64906 
L 396.027016 290.776485 
L 396.747617 290.538738 
L 397.468217 289.548095 
L 398.188818 289.232441 
L 399.630019 290.782905 
L 400.35062 290.341348 
L 401.07122 288.815806 
L 401.791821 288.354357 
L 403.233022 290.787652 
L 403.953623 289.871541 
L 404.674223 287.025436 
L 405.394824 286.089819 
L 406.836025 290.787493 
L 407.556626 288.369928 
L 408.277226 280.85998 
L 408.997827 277.423758 
L 410.439028 290.795183 
L 411.159629 277.14958 
L 411.880229 218.202684 
L 412.60083 127.069288 
L 413.32143 58.473457 
L 414.042031 34.534545 
L 414.762631 52.114947 
L 415.483232 122.965289 
L 416.203833 217.981369 
L 416.924433 277.40557 
L 417.645034 290.778886 
L 419.086235 276.309254 
L 419.806836 280.275562 
L 420.527436 288.30757 
L 421.248037 290.776128 
L 422.689238 285.454272 
L 423.409838 286.595555 
L 424.130439 289.803158 
L 424.85104 290.777678 
L 426.292241 287.899361 
L 427.012841 288.474523 
L 427.733442 290.28252 
L 428.454043 290.77147 
L 429.895244 288.861444 
L 430.615844 289.256711 
L 431.336445 290.488474 
L 432.057045 290.825455 
L 432.057045 290.825455 
" clip-path="url(#p0bab6f8d7d)" style="fill: none; stroke: #ff7f50; stroke-width: 1.5; stroke-linecap: square"/>
   </g>
   <g id="patch_3">
    <path d="M 55.255 303.64 
L 55.255 21.72 
" style="fill: none; stroke: #000000; stroke-width: 0.8; stroke-linejoin: miter; stroke-linecap: square"/>
   </g>
   <g id="patch_4">
    <path d="M 450 303.64 
L 450 21.72 
" style="fill: none; stroke: #000000; stroke-width: 0.8; stroke-linejoin: miter; stroke-linecap: square"/>
   </g>
   <g id="patch_5">
    <path d="M 55.255 303.64 
L 450 303.64 
" style="fill: none; stroke: #000000; stroke-width: 0.8; stroke-linejoin: miter; stroke-linecap: square"/>
   </g>
   <g id="patch_6">
    <path d="M 55.255 21.72 
L 450 21.72 
" style="fill: none; stroke: #000000; stroke-width: 0.8; stroke-linejoin: miter; stroke-linecap: square"/>
   </g>
  </g>
 </g>
 <defs>
  <clipPath id="p0bab6f8d7d">
   <rect x="55.255" y="21.72" width="394.745" height="281.92"/>
  </clipPath>
 </defs>
</svg>
